<?xml version="1.0" encoding="UTF-8" standalone="no"?>
<!DOCTYPE svg PUBLIC "-//W3C//DTD SVG 1.1//EN"
 "http://www.w3.org/Graphics/SVG/1.1/DTD/svg11.dtd">
<!-- Generated by graphviz version 2.47.0 (20210316.0004)
 -->
<!-- Title: dependencies Pages: 1 -->
<svg width="504pt" height="284pt"
 viewBox="0.00 0.00 504.00 284.00" xmlns="http://www.w3.org/2000/svg" xmlns:xlink="http://www.w3.org/1999/xlink">
<g id="graph0" class="graph" transform="scale(1 1) rotate(0) translate(4 280)">
<title>dependencies</title>
<polygon fill="white" stroke="transparent" points="-4,4 -4,-280 500,-280 500,4 -4,4"/>
<text text-anchor="start" x="227.01" y="-42.4" font-family="Times-12" font-weight="bold" font-size="14.00">Legend</text>
<polygon fill="#ffffb3" stroke="transparent" points="14,-10 14,-30 34,-30 34,-10 14,-10"/>
<text text-anchor="start" x="37.63" y="-15.4" font-family="Times-12" font-size="14.00"> &#160;Declarations</text>
<polygon fill="#8dd3c7" stroke="transparent" points="127,-10 127,-30 147,-30 147,-10 127,-10"/>
<text text-anchor="start" x="150.73" y="-15.4" font-family="Times-12" font-size="14.00"> &#160;Module</text>
<polygon fill="#80b1d3" stroke="transparent" points="213,-10 213,-30 233,-30 233,-10 213,-10"/>
<text text-anchor="start" x="236.78" y="-15.4" font-family="Times-12" font-size="14.00"> &#160;Bootstrap</text>
<polygon fill="#fdb462" stroke="transparent" points="310,-10 310,-30 330,-30 330,-10 310,-10"/>
<text text-anchor="start" x="333.67" y="-15.4" font-family="Times-12" font-size="14.00"> &#160;Providers</text>
<polygon fill="#fb8072" stroke="transparent" points="406,-10 406,-30 426,-30 426,-10 406,-10"/>
<text text-anchor="start" x="429.73" y="-15.4" font-family="Times-12" font-size="14.00"> &#160;Exports</text>
<g id="clust1" class="cluster">
<title>cluster_WizardModule</title>
<polygon fill="none" stroke="black" stroke-dasharray="1,5" points="104,-70 104,-268 392,-268 392,-70 104,-70"/>
</g>
<g id="clust6" class="cluster">
<title>cluster_WizardModule_exports</title>
<polygon fill="none" stroke="black" points="112,-208 112,-260 384,-260 384,-208 112,-208"/>
</g>
<g id="clust2" class="cluster">
<title>cluster_WizardModule_declarations</title>
<polygon fill="none" stroke="black" points="115,-78 115,-130 381,-130 381,-78 115,-78"/>
</g>
<!-- WizardComponent -->
<g id="node1" class="node">
<title>WizardComponent</title>
<polygon fill="#ffffb3" stroke="black" points="373.03,-122 250.97,-122 250.97,-86 373.03,-86 373.03,-122"/>
<text text-anchor="middle" x="312" y="-99.8" font-family="Times,serif" font-size="14.00">WizardComponent</text>
</g>
<!-- WizardModule -->
<g id="node3" class="node">
<title>WizardModule</title>
<polygon fill="#8dd3c7" stroke="black" points="228.25,-187 225.25,-191 204.25,-191 201.25,-187 127.75,-187 127.75,-151 228.25,-151 228.25,-187"/>
<text text-anchor="middle" x="178" y="-164.8" font-family="Times,serif" font-size="14.00">WizardModule</text>
</g>
<!-- WizardComponent&#45;&gt;WizardModule -->
<g id="edge1" class="edge">
<title>WizardComponent&#45;&gt;WizardModule</title>
<path fill="none" stroke="black" d="M332.42,-122.02C332.42,-139.37 332.42,-163 332.42,-163 332.42,-163 238.56,-163 238.56,-163"/>
<polygon fill="black" stroke="black" points="238.56,-159.5 228.56,-163 238.56,-166.5 238.56,-159.5"/>
</g>
<!-- WizardDirective -->
<g id="node2" class="node">
<title>WizardDirective</title>
<polygon fill="#ffffb3" stroke="black" points="232.78,-122 123.22,-122 123.22,-86 232.78,-86 232.78,-122"/>
<text text-anchor="middle" x="178" y="-99.8" font-family="Times,serif" font-size="14.00">WizardDirective</text>
</g>
<!-- WizardDirective&#45;&gt;WizardModule -->
<g id="edge2" class="edge">
<title>WizardDirective&#45;&gt;WizardModule</title>
<path fill="none" stroke="black" d="M178,-122.11C178,-122.11 178,-140.99 178,-140.99"/>
<polygon fill="black" stroke="black" points="174.5,-140.99 178,-150.99 181.5,-140.99 174.5,-140.99"/>
</g>
<!-- WizardComponent  -->
<g id="node4" class="node">
<title>WizardComponent </title>
<polygon fill="#fb8072" stroke="black" points="376.03,-252 249.97,-252 249.97,-216 376.03,-216 376.03,-252"/>
<text text-anchor="middle" x="313" y="-229.8" font-family="Times,serif" font-size="14.00">WizardComponent </text>
</g>
<!-- WizardModule&#45;&gt;WizardComponent  -->
<g id="edge3" class="edge">
<title>WizardModule&#45;&gt;WizardComponent </title>
<path fill="none" stroke="black" stroke-dasharray="5,2" d="M228.48,-175C258.81,-175 291.58,-175 291.58,-175 291.58,-175 291.58,-205.98 291.58,-205.98"/>
<polygon fill="black" stroke="black" points="288.08,-205.98 291.58,-215.98 295.08,-205.98 288.08,-205.98"/>
</g>
<!-- WizardDirective  -->
<g id="node5" class="node">
<title>WizardDirective </title>
<polygon fill="#fb8072" stroke="black" points="232.28,-252 119.72,-252 119.72,-216 232.28,-216 232.28,-252"/>
<text text-anchor="middle" x="176" y="-229.8" font-family="Times,serif" font-size="14.00">WizardDirective </text>
</g>
<!-- WizardModule&#45;&gt;WizardDirective  -->
<g id="edge4" class="edge">
<title>WizardModule&#45;&gt;WizardDirective </title>
<path fill="none" stroke="black" stroke-dasharray="5,2" d="M178,-187.11C178,-187.11 178,-205.99 178,-205.99"/>
<polygon fill="black" stroke="black" points="174.5,-205.99 178,-215.99 181.5,-205.99 174.5,-205.99"/>
</g>
</g>
</svg>
