<?xml version="1.0" encoding="UTF-8" standalone="no"?>
<!DOCTYPE svg PUBLIC "-//W3C//DTD SVG 1.1//EN"
 "http://www.w3.org/Graphics/SVG/1.1/DTD/svg11.dtd">
<!-- Generated by graphviz version 2.47.0 (20210316.0004)
 -->
<!-- Title: dependencies Pages: 1 -->
<svg width="504pt" height="284pt"
 viewBox="0.00 0.00 504.00 284.00" xmlns="http://www.w3.org/2000/svg" xmlns:xlink="http://www.w3.org/1999/xlink">
<g id="graph0" class="graph" transform="scale(1 1) rotate(0) translate(4 280)">
<title>dependencies</title>
<polygon fill="white" stroke="transparent" points="-4,4 -4,-280 500,-280 500,4 -4,4"/>
<text text-anchor="start" x="227.01" y="-42.4" font-family="Times-12" font-weight="bold" font-size="14.00">Legend</text>
<polygon fill="#ffffb3" stroke="transparent" points="14,-10 14,-30 34,-30 34,-10 14,-10"/>
<text text-anchor="start" x="37.63" y="-15.4" font-family="Times-12" font-size="14.00"> &#160;Declarations</text>
<polygon fill="#8dd3c7" stroke="transparent" points="127,-10 127,-30 147,-30 147,-10 127,-10"/>
<text text-anchor="start" x="150.73" y="-15.4" font-family="Times-12" font-size="14.00"> &#160;Module</text>
<polygon fill="#80b1d3" stroke="transparent" points="213,-10 213,-30 233,-30 233,-10 213,-10"/>
<text text-anchor="start" x="236.78" y="-15.4" font-family="Times-12" font-size="14.00"> &#160;Bootstrap</text>
<polygon fill="#fdb462" stroke="transparent" points="310,-10 310,-30 330,-30 330,-10 310,-10"/>
<text text-anchor="start" x="333.67" y="-15.4" font-family="Times-12" font-size="14.00"> &#160;Providers</text>
<polygon fill="#fb8072" stroke="transparent" points="406,-10 406,-30 426,-30 426,-10 406,-10"/>
<text text-anchor="start" x="429.73" y="-15.4" font-family="Times-12" font-size="14.00"> &#160;Exports</text>
<g id="clust1" class="cluster">
<title>cluster_InputCharModule</title>
<polygon fill="none" stroke="black" stroke-dasharray="1,5" points="88,-70 88,-268 408,-268 408,-70 88,-70"/>
</g>
<g id="clust2" class="cluster">
<title>cluster_InputCharModule_declarations</title>
<polygon fill="none" stroke="black" points="100,-78 100,-130 396,-130 396,-78 100,-78"/>
</g>
<g id="clust6" class="cluster">
<title>cluster_InputCharModule_exports</title>
<polygon fill="none" stroke="black" points="96,-208 96,-260 400,-260 400,-208 96,-208"/>
</g>
<!-- InputCharComponent -->
<g id="node1" class="node">
<title>InputCharComponent</title>
<polygon fill="#ffffb3" stroke="black" points="388.1,-122 249.9,-122 249.9,-86 388.1,-86 388.1,-122"/>
<text text-anchor="middle" x="319" y="-99.8" font-family="Times,serif" font-size="14.00">InputCharComponent</text>
</g>
<!-- InputCharModule -->
<g id="node3" class="node">
<title>InputCharModule</title>
<polygon fill="#8dd3c7" stroke="black" points="229.31,-187 226.31,-191 205.31,-191 202.31,-187 112.69,-187 112.69,-151 229.31,-151 229.31,-187"/>
<text text-anchor="middle" x="171" y="-164.8" font-family="Times,serif" font-size="14.00">InputCharModule</text>
</g>
<!-- InputCharComponent&#45;&gt;InputCharModule -->
<g id="edge1" class="edge">
<title>InputCharComponent&#45;&gt;InputCharModule</title>
<path fill="none" stroke="black" d="M342.1,-122.02C342.1,-139.37 342.1,-163 342.1,-163 342.1,-163 239.4,-163 239.4,-163"/>
<polygon fill="black" stroke="black" points="239.4,-159.5 229.4,-163 239.4,-166.5 239.4,-159.5"/>
</g>
<!-- InputCharDirective -->
<g id="node2" class="node">
<title>InputCharDirective</title>
<polygon fill="#ffffb3" stroke="black" points="232.35,-122 107.65,-122 107.65,-86 232.35,-86 232.35,-122"/>
<text text-anchor="middle" x="170" y="-99.8" font-family="Times,serif" font-size="14.00">InputCharDirective</text>
</g>
<!-- InputCharDirective&#45;&gt;InputCharModule -->
<g id="edge2" class="edge">
<title>InputCharDirective&#45;&gt;InputCharModule</title>
<path fill="none" stroke="black" d="M171,-122.11C171,-122.11 171,-140.99 171,-140.99"/>
<polygon fill="black" stroke="black" points="167.5,-140.99 171,-150.99 174.5,-140.99 167.5,-140.99"/>
</g>
<!-- InputCharComponent  -->
<g id="node4" class="node">
<title>InputCharComponent </title>
<polygon fill="#fb8072" stroke="black" points="391.6,-252 250.4,-252 250.4,-216 391.6,-216 391.6,-252"/>
<text text-anchor="middle" x="321" y="-229.8" font-family="Times,serif" font-size="14.00">InputCharComponent </text>
</g>
<!-- InputCharModule&#45;&gt;InputCharComponent  -->
<g id="edge3" class="edge">
<title>InputCharModule&#45;&gt;InputCharComponent </title>
<path fill="none" stroke="black" stroke-dasharray="5,2" d="M229.18,-175C261.86,-175 296.15,-175 296.15,-175 296.15,-175 296.15,-205.98 296.15,-205.98"/>
<polygon fill="black" stroke="black" points="292.65,-205.98 296.15,-215.98 299.65,-205.98 292.65,-205.98"/>
</g>
<!-- InputCharDirective  -->
<g id="node5" class="node">
<title>InputCharDirective </title>
<polygon fill="#fb8072" stroke="black" points="232.35,-252 103.65,-252 103.65,-216 232.35,-216 232.35,-252"/>
<text text-anchor="middle" x="168" y="-229.8" font-family="Times,serif" font-size="14.00">InputCharDirective </text>
</g>
<!-- InputCharModule&#45;&gt;InputCharDirective  -->
<g id="edge4" class="edge">
<title>InputCharModule&#45;&gt;InputCharDirective </title>
<path fill="none" stroke="black" stroke-dasharray="5,2" d="M171,-187.11C171,-187.11 171,-205.99 171,-205.99"/>
<polygon fill="black" stroke="black" points="167.5,-205.99 171,-215.99 174.5,-205.99 167.5,-205.99"/>
</g>
</g>
</svg>
