<?xml version="1.0" encoding="UTF-8" standalone="no"?>
<!DOCTYPE svg PUBLIC "-//W3C//DTD SVG 1.1//EN"
 "http://www.w3.org/Graphics/SVG/1.1/DTD/svg11.dtd">
<!-- Generated by graphviz version 2.47.0 (20210316.0004)
 -->
<!-- Title: dependencies Pages: 1 -->
<svg width="1832pt" height="396pt"
 viewBox="0.00 0.00 1832.00 395.59" xmlns="http://www.w3.org/2000/svg" xmlns:xlink="http://www.w3.org/1999/xlink">
<g id="graph0" class="graph" transform="scale(1 1) rotate(0) translate(4 391.59)">
<title>dependencies</title>
<polygon fill="white" stroke="transparent" points="-4,4 -4,-391.59 1828,-391.59 1828,4 -4,4"/>
<text text-anchor="start" x="891.01" y="-42.4" font-family="Times-12" font-weight="bold" font-size="14.00">Legend</text>
<polygon fill="#ffffb3" stroke="transparent" points="678,-10 678,-30 698,-30 698,-10 678,-10"/>
<text text-anchor="start" x="701.63" y="-15.4" font-family="Times-12" font-size="14.00"> &#160;Declarations</text>
<polygon fill="#8dd3c7" stroke="transparent" points="791,-10 791,-30 811,-30 811,-10 791,-10"/>
<text text-anchor="start" x="814.73" y="-15.4" font-family="Times-12" font-size="14.00"> &#160;Module</text>
<polygon fill="#80b1d3" stroke="transparent" points="877,-10 877,-30 897,-30 897,-10 877,-10"/>
<text text-anchor="start" x="900.78" y="-15.4" font-family="Times-12" font-size="14.00"> &#160;Bootstrap</text>
<polygon fill="#fdb462" stroke="transparent" points="974,-10 974,-30 994,-30 994,-10 974,-10"/>
<text text-anchor="start" x="997.67" y="-15.4" font-family="Times-12" font-size="14.00"> &#160;Providers</text>
<polygon fill="#fb8072" stroke="transparent" points="1070,-10 1070,-30 1090,-30 1090,-10 1070,-10"/>
<text text-anchor="start" x="1093.73" y="-15.4" font-family="Times-12" font-size="14.00"> &#160;Exports</text>
<g id="clust1" class="cluster">
<title>cluster_IncompleteDateModule</title>
<polygon fill="none" stroke="black" stroke-dasharray="1,5" points="8,-70 8,-379.59 1816,-379.59 1816,-70 8,-70"/>
</g>
<g id="clust2" class="cluster">
<title>cluster_IncompleteDateModule_declarations</title>
<polygon fill="none" stroke="black" points="805,-189.59 805,-241.59 991,-241.59 991,-189.59 805,-189.59"/>
</g>
<g id="clust3" class="cluster">
<title>cluster_IncompleteDateModule_IncompleteDateComponent_providers</title>
<polygon fill="none" stroke="black" points="16,-78 16,-176.59 1808,-176.59 1808,-78 16,-78"/>
</g>
<g id="clust5" class="cluster">
<title>cluster_IncompleteDateModule_exports</title>
<polygon fill="none" stroke="black" points="803,-319.59 803,-371.59 993,-371.59 993,-319.59 803,-319.59"/>
</g>
<!-- IncompleteDateComponent -->
<g id="node1" class="node">
<title>IncompleteDateComponent</title>
<polygon fill="#ffffb3" stroke="black" points="983.24,-233.59 812.76,-233.59 812.76,-197.59 983.24,-197.59 983.24,-233.59"/>
<text text-anchor="middle" x="898" y="-211.39" font-family="Times,serif" font-size="14.00">IncompleteDateComponent</text>
</g>
<!-- IncompleteDateModule -->
<g id="node2" class="node">
<title>IncompleteDateModule</title>
<polygon fill="#8dd3c7" stroke="black" points="972.45,-298.59 969.45,-302.59 948.45,-302.59 945.45,-298.59 823.55,-298.59 823.55,-262.59 972.45,-262.59 972.45,-298.59"/>
<text text-anchor="middle" x="898" y="-276.39" font-family="Times,serif" font-size="14.00">IncompleteDateModule</text>
</g>
<!-- IncompleteDateComponent&#45;&gt;IncompleteDateModule -->
<g id="edge1" class="edge">
<title>IncompleteDateComponent&#45;&gt;IncompleteDateModule</title>
<path fill="none" stroke="black" d="M898,-233.7C898,-233.7 898,-252.58 898,-252.58"/>
<polygon fill="black" stroke="black" points="894.5,-252.58 898,-262.58 901.5,-252.58 894.5,-252.58"/>
</g>
<!-- IncompleteDateComponent  -->
<g id="node5" class="node">
<title>IncompleteDateComponent </title>
<polygon fill="#fb8072" stroke="black" points="985.24,-363.59 810.76,-363.59 810.76,-327.59 985.24,-327.59 985.24,-363.59"/>
<text text-anchor="middle" x="898" y="-341.39" font-family="Times,serif" font-size="14.00">IncompleteDateComponent </text>
</g>
<!-- IncompleteDateModule&#45;&gt;IncompleteDateComponent  -->
<g id="edge4" class="edge">
<title>IncompleteDateModule&#45;&gt;IncompleteDateComponent </title>
<path fill="none" stroke="black" stroke-dasharray="5,2" d="M898,-298.7C898,-298.7 898,-317.58 898,-317.58"/>
<polygon fill="black" stroke="black" points="894.5,-317.58 898,-327.58 901.5,-317.58 894.5,-317.58"/>
</g>
<!-- {
 &#160;&#160;&#160;provide: NG_VALUE_ACCESSOR, useExisting: forwardRef(() =&gt; IncompleteDateComponent), multi: true
} -->
<g id="node3" class="node">
<title>{
 &#160;&#160;&#160;provide: NG_VALUE_ACCESSOR, useExisting: forwardRef(() =&gt; IncompleteDateComponent), multi: true
}</title>
<ellipse fill="#fdb462" stroke="black" cx="1347" cy="-127.3" rx="452.96" ry="41.09"/>
<text text-anchor="middle" x="1347" y="-139.9" font-family="Times,serif" font-size="14.00">{</text>
<text text-anchor="middle" x="1347" y="-123.1" font-family="Times,serif" font-size="14.00"> &#160;&#160;&#160;provide: NG_VALUE_ACCESSOR, useExisting: forwardRef(() =&gt; IncompleteDateComponent), multi: true</text>
<text text-anchor="middle" x="1347" y="-106.3" font-family="Times,serif" font-size="14.00">}</text>
</g>
<!-- {
 &#160;&#160;&#160;provide: NG_VALUE_ACCESSOR, useExisting: forwardRef(() =&gt; IncompleteDateComponent), multi: true
}&#45;&gt;IncompleteDateComponent -->
<g id="edge2" class="edge">
<title>{
 &#160;&#160;&#160;provide: NG_VALUE_ACCESSOR, useExisting: forwardRef(() =&gt; IncompleteDateComponent), multi: true
}&#45;&gt;IncompleteDateComponent</title>
<path fill="none" stroke="black" d="M938.82,-145.16C938.82,-145.16 938.82,-187.45 938.82,-187.45"/>
<polygon fill="black" stroke="black" points="935.32,-187.45 938.82,-197.45 942.32,-187.45 935.32,-187.45"/>
</g>
<!-- {
 &#160;&#160;&#160;provide: NG_VALIDATORS, useExisting: forwardRef(() =&gt; IncompleteDateComponent), multi: true
} -->
<g id="node4" class="node">
<title>{
 &#160;&#160;&#160;provide: NG_VALIDATORS, useExisting: forwardRef(() =&gt; IncompleteDateComponent), multi: true
}</title>
<ellipse fill="#fdb462" stroke="black" cx="450" cy="-127.3" rx="426.14" ry="41.09"/>
<text text-anchor="middle" x="450" y="-139.9" font-family="Times,serif" font-size="14.00">{</text>
<text text-anchor="middle" x="450" y="-123.1" font-family="Times,serif" font-size="14.00"> &#160;&#160;&#160;provide: NG_VALIDATORS, useExisting: forwardRef(() =&gt; IncompleteDateComponent), multi: true</text>
<text text-anchor="middle" x="450" y="-106.3" font-family="Times,serif" font-size="14.00">}</text>
</g>
<!-- {
 &#160;&#160;&#160;provide: NG_VALIDATORS, useExisting: forwardRef(() =&gt; IncompleteDateComponent), multi: true
}&#45;&gt;IncompleteDateComponent -->
<g id="edge3" class="edge">
<title>{
 &#160;&#160;&#160;provide: NG_VALIDATORS, useExisting: forwardRef(() =&gt; IncompleteDateComponent), multi: true
}&#45;&gt;IncompleteDateComponent</title>
<path fill="none" stroke="black" d="M844.48,-143.08C844.48,-143.08 844.48,-187.51 844.48,-187.51"/>
<polygon fill="black" stroke="black" points="840.98,-187.51 844.48,-197.51 847.98,-187.51 840.98,-187.51"/>
</g>
</g>
</svg>
