<?xml version="1.0" encoding="UTF-8" standalone="no"?>
<!DOCTYPE svg PUBLIC "-//W3C//DTD SVG 1.1//EN"
 "http://www.w3.org/Graphics/SVG/1.1/DTD/svg11.dtd">
<!-- Generated by graphviz version 2.47.0 (20210316.0004)
 -->
<!-- Title: dependencies Pages: 1 -->
<svg width="2812pt" height="399pt"
 viewBox="0.00 0.00 2812.00 398.59" xmlns="http://www.w3.org/2000/svg" xmlns:xlink="http://www.w3.org/1999/xlink">
<g id="graph0" class="graph" transform="scale(1 1) rotate(0) translate(4 394.59)">
<title>dependencies</title>
<polygon fill="white" stroke="transparent" points="-4,4 -4,-394.59 2808,-394.59 2808,4 -4,4"/>
<text text-anchor="start" x="1381.01" y="-42.4" font-family="Times-12" font-weight="bold" font-size="14.00">Legend</text>
<polygon fill="#ffffb3" stroke="transparent" points="1168,-10 1168,-30 1188,-30 1188,-10 1168,-10"/>
<text text-anchor="start" x="1191.63" y="-15.4" font-family="Times-12" font-size="14.00"> &#160;Declarations</text>
<polygon fill="#8dd3c7" stroke="transparent" points="1281,-10 1281,-30 1301,-30 1301,-10 1281,-10"/>
<text text-anchor="start" x="1304.73" y="-15.4" font-family="Times-12" font-size="14.00"> &#160;Module</text>
<polygon fill="#80b1d3" stroke="transparent" points="1367,-10 1367,-30 1387,-30 1387,-10 1367,-10"/>
<text text-anchor="start" x="1390.78" y="-15.4" font-family="Times-12" font-size="14.00"> &#160;Bootstrap</text>
<polygon fill="#fdb462" stroke="transparent" points="1464,-10 1464,-30 1484,-30 1484,-10 1464,-10"/>
<text text-anchor="start" x="1487.67" y="-15.4" font-family="Times-12" font-size="14.00"> &#160;Providers</text>
<polygon fill="#fb8072" stroke="transparent" points="1560,-10 1560,-30 1580,-30 1580,-10 1560,-10"/>
<text text-anchor="start" x="1583.73" y="-15.4" font-family="Times-12" font-size="14.00"> &#160;Exports</text>
<g id="clust1" class="cluster">
<title>cluster_HauptfensterModule</title>
<polygon fill="none" stroke="black" stroke-dasharray="1,5" points="8,-93.3 8,-314.59 198,-314.59 198,-93.3 8,-93.3"/>
</g>
<g id="clust2" class="cluster">
<title>cluster_HauptfensterModule_declarations</title>
<polygon fill="none" stroke="black" points="18,-101.3 18,-153.3 188,-153.3 188,-101.3 18,-101.3"/>
</g>
<g id="clust5" class="cluster">
<title>cluster_HauptfensterModule_exports</title>
<polygon fill="none" stroke="black" points="16,-254.59 16,-306.59 190,-306.59 190,-254.59 16,-254.59"/>
</g>
<g id="clust8" class="cluster">
<title>cluster_IncompleteDateModule</title>
<polygon fill="none" stroke="black" stroke-dasharray="1,5" points="206,-70 206,-382.59 2014,-382.59 2014,-70 206,-70"/>
</g>
<g id="clust9" class="cluster">
<title>cluster_IncompleteDateModule_declarations</title>
<polygon fill="none" stroke="black" points="1003,-189.59 1003,-241.59 1189,-241.59 1189,-189.59 1003,-189.59"/>
</g>
<g id="clust10" class="cluster">
<title>cluster_IncompleteDateModule_IncompleteDateComponent_providers</title>
<polygon fill="none" stroke="black" points="214,-78 214,-176.59 2006,-176.59 2006,-78 214,-78"/>
</g>
<g id="clust12" class="cluster">
<title>cluster_IncompleteDateModule_exports</title>
<polygon fill="none" stroke="black" points="1001,-322.59 1001,-374.59 1191,-374.59 1191,-322.59 1001,-322.59"/>
</g>
<g id="clust15" class="cluster">
<title>cluster_InputCharModule</title>
<polygon fill="none" stroke="black" stroke-dasharray="1,5" points="2022,-93.3 2022,-314.59 2342,-314.59 2342,-93.3 2022,-93.3"/>
</g>
<g id="clust16" class="cluster">
<title>cluster_InputCharModule_declarations</title>
<polygon fill="none" stroke="black" points="2034,-101.3 2034,-153.3 2330,-153.3 2330,-101.3 2034,-101.3"/>
</g>
<g id="clust20" class="cluster">
<title>cluster_InputCharModule_exports</title>
<polygon fill="none" stroke="black" points="2030,-254.59 2030,-306.59 2334,-306.59 2334,-254.59 2030,-254.59"/>
</g>
<g id="clust23" class="cluster">
<title>cluster_SecurityModule</title>
<polygon fill="none" stroke="black" stroke-dasharray="1,5" points="2350,-93.3 2350,-314.59 2500,-314.59 2500,-93.3 2350,-93.3"/>
</g>
<g id="clust24" class="cluster">
<title>cluster_SecurityModule_declarations</title>
<polygon fill="none" stroke="black" points="2360,-101.3 2360,-153.3 2490,-153.3 2490,-101.3 2360,-101.3"/>
</g>
<g id="clust27" class="cluster">
<title>cluster_SecurityModule_exports</title>
<polygon fill="none" stroke="black" points="2358,-254.59 2358,-306.59 2492,-306.59 2492,-254.59 2358,-254.59"/>
</g>
<g id="clust30" class="cluster">
<title>cluster_WizardModule</title>
<polygon fill="none" stroke="black" stroke-dasharray="1,5" points="2508,-93.3 2508,-314.59 2796,-314.59 2796,-93.3 2508,-93.3"/>
</g>
<g id="clust31" class="cluster">
<title>cluster_WizardModule_declarations</title>
<polygon fill="none" stroke="black" points="2519,-101.3 2519,-153.3 2785,-153.3 2785,-101.3 2519,-101.3"/>
</g>
<g id="clust35" class="cluster">
<title>cluster_WizardModule_exports</title>
<polygon fill="none" stroke="black" points="2516,-254.59 2516,-306.59 2788,-306.59 2788,-254.59 2516,-254.59"/>
</g>
<!-- HauptfensterComponent -->
<g id="node1" class="node">
<title>HauptfensterComponent</title>
<polygon fill="#ffffb3" stroke="black" points="179.63,-145.3 26.37,-145.3 26.37,-109.3 179.63,-109.3 179.63,-145.3"/>
<text text-anchor="middle" x="103" y="-123.1" font-family="Times,serif" font-size="14.00">HauptfensterComponent</text>
</g>
<!-- HauptfensterModule -->
<g id="node2" class="node">
<title>HauptfensterModule</title>
<polygon fill="#8dd3c7" stroke="black" points="168.85,-233.59 165.85,-237.59 144.85,-237.59 141.85,-233.59 37.15,-233.59 37.15,-197.59 168.85,-197.59 168.85,-233.59"/>
<text text-anchor="middle" x="103" y="-211.39" font-family="Times,serif" font-size="14.00">HauptfensterModule</text>
</g>
<!-- HauptfensterComponent&#45;&gt;HauptfensterModule -->
<g id="edge1" class="edge">
<title>HauptfensterComponent&#45;&gt;HauptfensterModule</title>
<path fill="none" stroke="black" d="M103,-145.59C103,-145.59 103,-187.32 103,-187.32"/>
<polygon fill="black" stroke="black" points="99.5,-187.32 103,-197.32 106.5,-187.32 99.5,-187.32"/>
</g>
<!-- HauptfensterComponent  -->
<g id="node3" class="node">
<title>HauptfensterComponent </title>
<polygon fill="#fb8072" stroke="black" points="181.63,-298.59 24.37,-298.59 24.37,-262.59 181.63,-262.59 181.63,-298.59"/>
<text text-anchor="middle" x="103" y="-276.39" font-family="Times,serif" font-size="14.00">HauptfensterComponent </text>
</g>
<!-- HauptfensterModule&#45;&gt;HauptfensterComponent  -->
<g id="edge2" class="edge">
<title>HauptfensterModule&#45;&gt;HauptfensterComponent </title>
<path fill="none" stroke="black" stroke-dasharray="5,2" d="M103,-233.7C103,-233.7 103,-252.58 103,-252.58"/>
<polygon fill="black" stroke="black" points="99.5,-252.58 103,-262.58 106.5,-252.58 99.5,-252.58"/>
</g>
<!-- IncompleteDateComponent -->
<g id="node4" class="node">
<title>IncompleteDateComponent</title>
<polygon fill="#ffffb3" stroke="black" points="1181.24,-233.59 1010.76,-233.59 1010.76,-197.59 1181.24,-197.59 1181.24,-233.59"/>
<text text-anchor="middle" x="1096" y="-211.39" font-family="Times,serif" font-size="14.00">IncompleteDateComponent</text>
</g>
<!-- IncompleteDateModule -->
<g id="node5" class="node">
<title>IncompleteDateModule</title>
<polygon fill="#8dd3c7" stroke="black" points="1170.45,-298.59 1167.45,-302.59 1146.45,-302.59 1143.45,-298.59 1021.55,-298.59 1021.55,-262.59 1170.45,-262.59 1170.45,-298.59"/>
<text text-anchor="middle" x="1096" y="-276.39" font-family="Times,serif" font-size="14.00">IncompleteDateModule</text>
</g>
<!-- IncompleteDateComponent&#45;&gt;IncompleteDateModule -->
<g id="edge3" class="edge">
<title>IncompleteDateComponent&#45;&gt;IncompleteDateModule</title>
<path fill="none" stroke="black" d="M1096,-233.7C1096,-233.7 1096,-252.58 1096,-252.58"/>
<polygon fill="black" stroke="black" points="1092.5,-252.58 1096,-262.58 1099.5,-252.58 1092.5,-252.58"/>
</g>
<!-- IncompleteDateComponent  -->
<g id="node8" class="node">
<title>IncompleteDateComponent </title>
<polygon fill="#fb8072" stroke="black" points="1183.24,-366.59 1008.76,-366.59 1008.76,-330.59 1183.24,-330.59 1183.24,-366.59"/>
<text text-anchor="middle" x="1096" y="-344.39" font-family="Times,serif" font-size="14.00">IncompleteDateComponent </text>
</g>
<!-- IncompleteDateModule&#45;&gt;IncompleteDateComponent  -->
<g id="edge6" class="edge">
<title>IncompleteDateModule&#45;&gt;IncompleteDateComponent </title>
<path fill="none" stroke="black" stroke-dasharray="5,2" d="M1096,-298.81C1096,-298.81 1096,-320.32 1096,-320.32"/>
<polygon fill="black" stroke="black" points="1092.5,-320.32 1096,-330.32 1099.5,-320.32 1092.5,-320.32"/>
</g>
<!-- {
 &#160;&#160;&#160;provide: NG_VALUE_ACCESSOR, useExisting: forwardRef(() =&gt; IncompleteDateComponent), multi: true
} -->
<g id="node6" class="node">
<title>{
 &#160;&#160;&#160;provide: NG_VALUE_ACCESSOR, useExisting: forwardRef(() =&gt; IncompleteDateComponent), multi: true
}</title>
<ellipse fill="#fdb462" stroke="black" cx="1545" cy="-127.3" rx="452.96" ry="41.09"/>
<text text-anchor="middle" x="1545" y="-139.9" font-family="Times,serif" font-size="14.00">{</text>
<text text-anchor="middle" x="1545" y="-123.1" font-family="Times,serif" font-size="14.00"> &#160;&#160;&#160;provide: NG_VALUE_ACCESSOR, useExisting: forwardRef(() =&gt; IncompleteDateComponent), multi: true</text>
<text text-anchor="middle" x="1545" y="-106.3" font-family="Times,serif" font-size="14.00">}</text>
</g>
<!-- {
 &#160;&#160;&#160;provide: NG_VALUE_ACCESSOR, useExisting: forwardRef(() =&gt; IncompleteDateComponent), multi: true
}&#45;&gt;IncompleteDateComponent -->
<g id="edge4" class="edge">
<title>{
 &#160;&#160;&#160;provide: NG_VALUE_ACCESSOR, useExisting: forwardRef(() =&gt; IncompleteDateComponent), multi: true
}&#45;&gt;IncompleteDateComponent</title>
<path fill="none" stroke="black" d="M1136.82,-145.16C1136.82,-145.16 1136.82,-187.45 1136.82,-187.45"/>
<polygon fill="black" stroke="black" points="1133.32,-187.45 1136.82,-197.45 1140.32,-187.45 1133.32,-187.45"/>
</g>
<!-- {
 &#160;&#160;&#160;provide: NG_VALIDATORS, useExisting: forwardRef(() =&gt; IncompleteDateComponent), multi: true
} -->
<g id="node7" class="node">
<title>{
 &#160;&#160;&#160;provide: NG_VALIDATORS, useExisting: forwardRef(() =&gt; IncompleteDateComponent), multi: true
}</title>
<ellipse fill="#fdb462" stroke="black" cx="648" cy="-127.3" rx="426.14" ry="41.09"/>
<text text-anchor="middle" x="648" y="-139.9" font-family="Times,serif" font-size="14.00">{</text>
<text text-anchor="middle" x="648" y="-123.1" font-family="Times,serif" font-size="14.00"> &#160;&#160;&#160;provide: NG_VALIDATORS, useExisting: forwardRef(() =&gt; IncompleteDateComponent), multi: true</text>
<text text-anchor="middle" x="648" y="-106.3" font-family="Times,serif" font-size="14.00">}</text>
</g>
<!-- {
 &#160;&#160;&#160;provide: NG_VALIDATORS, useExisting: forwardRef(() =&gt; IncompleteDateComponent), multi: true
}&#45;&gt;IncompleteDateComponent -->
<g id="edge5" class="edge">
<title>{
 &#160;&#160;&#160;provide: NG_VALIDATORS, useExisting: forwardRef(() =&gt; IncompleteDateComponent), multi: true
}&#45;&gt;IncompleteDateComponent</title>
<path fill="none" stroke="black" d="M1042.48,-143.08C1042.48,-143.08 1042.48,-187.51 1042.48,-187.51"/>
<polygon fill="black" stroke="black" points="1038.98,-187.51 1042.48,-197.51 1045.98,-187.51 1038.98,-187.51"/>
</g>
<!-- InputCharComponent -->
<g id="node9" class="node">
<title>InputCharComponent</title>
<polygon fill="#ffffb3" stroke="black" points="2322.1,-145.3 2183.9,-145.3 2183.9,-109.3 2322.1,-109.3 2322.1,-145.3"/>
<text text-anchor="middle" x="2253" y="-123.1" font-family="Times,serif" font-size="14.00">InputCharComponent</text>
</g>
<!-- InputCharModule -->
<g id="node11" class="node">
<title>InputCharModule</title>
<polygon fill="#8dd3c7" stroke="black" points="2163.31,-233.59 2160.31,-237.59 2139.31,-237.59 2136.31,-233.59 2046.69,-233.59 2046.69,-197.59 2163.31,-197.59 2163.31,-233.59"/>
<text text-anchor="middle" x="2105" y="-211.39" font-family="Times,serif" font-size="14.00">InputCharModule</text>
</g>
<!-- InputCharComponent&#45;&gt;InputCharModule -->
<g id="edge7" class="edge">
<title>InputCharComponent&#45;&gt;InputCharModule</title>
<path fill="none" stroke="black" d="M2230.15,-145.56C2230.15,-169.8 2230.15,-209.59 2230.15,-209.59 2230.15,-209.59 2173.18,-209.59 2173.18,-209.59"/>
<polygon fill="black" stroke="black" points="2173.18,-206.09 2163.18,-209.59 2173.18,-213.09 2173.18,-206.09"/>
</g>
<!-- InputCharDirective -->
<g id="node10" class="node">
<title>InputCharDirective</title>
<polygon fill="#ffffb3" stroke="black" points="2166.35,-145.3 2041.65,-145.3 2041.65,-109.3 2166.35,-109.3 2166.35,-145.3"/>
<text text-anchor="middle" x="2104" y="-123.1" font-family="Times,serif" font-size="14.00">InputCharDirective</text>
</g>
<!-- InputCharDirective&#45;&gt;InputCharModule -->
<g id="edge8" class="edge">
<title>InputCharDirective&#45;&gt;InputCharModule</title>
<path fill="none" stroke="black" d="M2105,-145.59C2105,-145.59 2105,-187.32 2105,-187.32"/>
<polygon fill="black" stroke="black" points="2101.5,-187.32 2105,-197.32 2108.5,-187.32 2101.5,-187.32"/>
</g>
<!-- InputCharComponent  -->
<g id="node12" class="node">
<title>InputCharComponent </title>
<polygon fill="#fb8072" stroke="black" points="2325.6,-298.59 2184.4,-298.59 2184.4,-262.59 2325.6,-262.59 2325.6,-298.59"/>
<text text-anchor="middle" x="2255" y="-276.39" font-family="Times,serif" font-size="14.00">InputCharComponent </text>
</g>
<!-- InputCharModule&#45;&gt;InputCharComponent  -->
<g id="edge9" class="edge">
<title>InputCharModule&#45;&gt;InputCharComponent </title>
<path fill="none" stroke="black" stroke-dasharray="5,2" d="M2163.4,-221.59C2212.97,-221.59 2276.1,-221.59 2276.1,-221.59 2276.1,-221.59 2276.1,-252.57 2276.1,-252.57"/>
<polygon fill="black" stroke="black" points="2272.6,-252.57 2276.1,-262.57 2279.6,-252.57 2272.6,-252.57"/>
</g>
<!-- InputCharDirective  -->
<g id="node13" class="node">
<title>InputCharDirective </title>
<polygon fill="#fb8072" stroke="black" points="2166.35,-298.59 2037.65,-298.59 2037.65,-262.59 2166.35,-262.59 2166.35,-298.59"/>
<text text-anchor="middle" x="2102" y="-276.39" font-family="Times,serif" font-size="14.00">InputCharDirective </text>
</g>
<!-- InputCharModule&#45;&gt;InputCharDirective  -->
<g id="edge10" class="edge">
<title>InputCharModule&#45;&gt;InputCharDirective </title>
<path fill="none" stroke="black" stroke-dasharray="5,2" d="M2105,-233.7C2105,-233.7 2105,-252.58 2105,-252.58"/>
<polygon fill="black" stroke="black" points="2101.5,-252.58 2105,-262.58 2108.5,-252.58 2101.5,-252.58"/>
</g>
<!-- SecurityDirective -->
<g id="node14" class="node">
<title>SecurityDirective</title>
<polygon fill="#ffffb3" stroke="black" points="2482.24,-145.3 2367.76,-145.3 2367.76,-109.3 2482.24,-109.3 2482.24,-145.3"/>
<text text-anchor="middle" x="2425" y="-123.1" font-family="Times,serif" font-size="14.00">SecurityDirective</text>
</g>
<!-- SecurityModule -->
<g id="node15" class="node">
<title>SecurityModule</title>
<polygon fill="#8dd3c7" stroke="black" points="2478.2,-233.59 2475.2,-237.59 2454.2,-237.59 2451.2,-233.59 2371.8,-233.59 2371.8,-197.59 2478.2,-197.59 2478.2,-233.59"/>
<text text-anchor="middle" x="2425" y="-211.39" font-family="Times,serif" font-size="14.00">SecurityModule</text>
</g>
<!-- SecurityDirective&#45;&gt;SecurityModule -->
<g id="edge11" class="edge">
<title>SecurityDirective&#45;&gt;SecurityModule</title>
<path fill="none" stroke="black" d="M2425,-145.59C2425,-145.59 2425,-187.32 2425,-187.32"/>
<polygon fill="black" stroke="black" points="2421.5,-187.32 2425,-197.32 2428.5,-187.32 2421.5,-187.32"/>
</g>
<!-- SecurityDirective  -->
<g id="node16" class="node">
<title>SecurityDirective </title>
<polygon fill="#fb8072" stroke="black" points="2484.24,-298.59 2365.76,-298.59 2365.76,-262.59 2484.24,-262.59 2484.24,-298.59"/>
<text text-anchor="middle" x="2425" y="-276.39" font-family="Times,serif" font-size="14.00">SecurityDirective </text>
</g>
<!-- SecurityModule&#45;&gt;SecurityDirective  -->
<g id="edge12" class="edge">
<title>SecurityModule&#45;&gt;SecurityDirective </title>
<path fill="none" stroke="black" stroke-dasharray="5,2" d="M2425,-233.7C2425,-233.7 2425,-252.58 2425,-252.58"/>
<polygon fill="black" stroke="black" points="2421.5,-252.58 2425,-262.58 2428.5,-252.58 2421.5,-252.58"/>
</g>
<!-- WizardComponent -->
<g id="node17" class="node">
<title>WizardComponent</title>
<polygon fill="#ffffb3" stroke="black" points="2777.03,-145.3 2654.97,-145.3 2654.97,-109.3 2777.03,-109.3 2777.03,-145.3"/>
<text text-anchor="middle" x="2716" y="-123.1" font-family="Times,serif" font-size="14.00">WizardComponent</text>
</g>
<!-- WizardModule -->
<g id="node19" class="node">
<title>WizardModule</title>
<polygon fill="#8dd3c7" stroke="black" points="2632.25,-233.59 2629.25,-237.59 2608.25,-237.59 2605.25,-233.59 2531.75,-233.59 2531.75,-197.59 2632.25,-197.59 2632.25,-233.59"/>
<text text-anchor="middle" x="2582" y="-211.39" font-family="Times,serif" font-size="14.00">WizardModule</text>
</g>
<!-- WizardComponent&#45;&gt;WizardModule -->
<g id="edge13" class="edge">
<title>WizardComponent&#45;&gt;WizardModule</title>
<path fill="none" stroke="black" d="M2695.58,-145.56C2695.58,-169.8 2695.58,-209.59 2695.58,-209.59 2695.58,-209.59 2642.48,-209.59 2642.48,-209.59"/>
<polygon fill="black" stroke="black" points="2642.48,-206.09 2632.48,-209.59 2642.48,-213.09 2642.48,-206.09"/>
</g>
<!-- WizardDirective -->
<g id="node18" class="node">
<title>WizardDirective</title>
<polygon fill="#ffffb3" stroke="black" points="2636.78,-145.3 2527.22,-145.3 2527.22,-109.3 2636.78,-109.3 2636.78,-145.3"/>
<text text-anchor="middle" x="2582" y="-123.1" font-family="Times,serif" font-size="14.00">WizardDirective</text>
</g>
<!-- WizardDirective&#45;&gt;WizardModule -->
<g id="edge14" class="edge">
<title>WizardDirective&#45;&gt;WizardModule</title>
<path fill="none" stroke="black" d="M2582,-145.59C2582,-145.59 2582,-187.32 2582,-187.32"/>
<polygon fill="black" stroke="black" points="2578.5,-187.32 2582,-197.32 2585.5,-187.32 2578.5,-187.32"/>
</g>
<!-- WizardComponent  -->
<g id="node20" class="node">
<title>WizardComponent </title>
<polygon fill="#fb8072" stroke="black" points="2780.03,-298.59 2653.97,-298.59 2653.97,-262.59 2780.03,-262.59 2780.03,-298.59"/>
<text text-anchor="middle" x="2717" y="-276.39" font-family="Times,serif" font-size="14.00">WizardComponent </text>
</g>
<!-- WizardModule&#45;&gt;WizardComponent  -->
<g id="edge15" class="edge">
<title>WizardModule&#45;&gt;WizardComponent </title>
<path fill="none" stroke="black" stroke-dasharray="5,2" d="M2632.56,-221.59C2677.6,-221.59 2736.42,-221.59 2736.42,-221.59 2736.42,-221.59 2736.42,-252.57 2736.42,-252.57"/>
<polygon fill="black" stroke="black" points="2732.92,-252.57 2736.42,-262.57 2739.92,-252.57 2732.92,-252.57"/>
</g>
<!-- WizardDirective  -->
<g id="node21" class="node">
<title>WizardDirective </title>
<polygon fill="#fb8072" stroke="black" points="2636.28,-298.59 2523.72,-298.59 2523.72,-262.59 2636.28,-262.59 2636.28,-298.59"/>
<text text-anchor="middle" x="2580" y="-276.39" font-family="Times,serif" font-size="14.00">WizardDirective </text>
</g>
<!-- WizardModule&#45;&gt;WizardDirective  -->
<g id="edge16" class="edge">
<title>WizardModule&#45;&gt;WizardDirective </title>
<path fill="none" stroke="black" stroke-dasharray="5,2" d="M2582,-233.7C2582,-233.7 2582,-252.58 2582,-252.58"/>
<polygon fill="black" stroke="black" points="2578.5,-252.58 2582,-262.58 2585.5,-252.58 2578.5,-252.58"/>
</g>
</g>
</svg>
